<?xml version="1.0" standalone="no"?>
<!DOCTYPE svg PUBLIC "-//W3C//DTD SVG 20010904//EN"
 "http://www.w3.org/TR/2001/REC-SVG-20010904/DTD/svg10.dtd">
<svg version="1.0" xmlns="http://www.w3.org/2000/svg"
 width="1221.000000pt" height="367.000000pt" viewBox="0 0 1221.000000 367.000000"
 preserveAspectRatio="xMidYMid meet">

<g transform="translate(0.000000,367.000000) scale(0.100000,-0.100000)"
fill="#000000" stroke="none">
<path d="M0 1835 l0 -1835 6105 0 6105 0 0 1835 0 1835 -6105 0 -6105 0 0
-1835z m2314 1755 c95 -24 175 -66 259 -136 118 -96 225 -250 274 -392 24 -68
27 -92 27 -207 0 -120 -2 -137 -31 -218 -66 -186 -136 -265 -408 -459 -679
-484 -1270 -883 -1390 -938 -44 -21 -105 -44 -135 -51 -79 -19 -250 -17 -330
5 -204 55 -376 200 -466 391 -47 102 -64 175 -71 305 -4 96 -2 129 16 202 34
144 115 278 223 370 29 25 337 235 683 468 347 233 684 462 750 509 66 47 148
99 183 114 129 58 281 72 416 37z m5176 -1105 l0 -645 -125 0 -125 0 0 52 0
52 -41 -42 c-67 -67 -118 -87 -224 -87 -82 0 -95 3 -145 31 -118 66 -169 176
-177 379 -8 203 28 317 131 420 86 86 200 127 358 129 l88 1 0 171 c0 94 3
174 7 177 3 4 62 7 130 7 l123 0 0 -645z m610 525 l0 -120 -145 0 -145 0 0
120 0 120 145 0 145 0 0 -120z m1088 -5 c34 -10 65 -22 68 -27 5 -7 -34 -216
-42 -227 -2 -1 -31 7 -66 20 -80 29 -251 33 -308 7 -93 -43 -158 -121 -185
-222 -25 -90 -17 -241 14 -314 31 -68 113 -144 183 -169 68 -23 238 -24 320
-1 l56 16 16 -92 c9 -50 19 -101 21 -112 12 -57 -329 -92 -485 -51 -213 56
-351 197 -395 403 -19 89 -19 240 0 329 32 151 125 293 242 371 144 96 367
123 561 69z m-4696 -22 c8 -21 75 -208 149 -416 119 -337 135 -375 145 -352 5
14 71 201 145 415 l134 390 163 0 c89 0 162 -4 162 -9 0 -18 99 -1108 104
-1138 l5 -33 -119 0 -119 0 -6 43 c-3 23 -21 199 -40 390 -18 192 -35 351 -38
353 -2 2 -68 -170 -147 -384 -78 -213 -146 -394 -150 -402 -6 -11 -38 -18
-112 -25 -99 -10 -103 -10 -114 10 -6 11 -76 199 -155 418 -79 219 -145 395
-146 390 -1 -4 -16 -163 -33 -353 -16 -190 -33 -366 -36 -392 l-6 -48 -114 0
-114 0 0 28 c0 36 99 1101 106 1130 4 22 7 22 163 22 l159 0 14 -37z m1678
-214 c86 -14 139 -38 194 -89 56 -51 80 -90 107 -166 21 -64 43 -242 33 -280
l-6 -24 -294 0 c-197 0 -294 -3 -294 -10 0 -19 38 -85 62 -107 69 -65 220 -77
362 -29 43 15 80 25 81 24 2 -2 12 -47 23 -102 l20 -98 -42 -19 c-171 -75
-411 -76 -548 -2 -57 31 -137 113 -167 171 -48 95 -66 269 -40 394 37 176 176
312 345 337 83 12 91 12 164 0z m3925 -15 c49 -9 93 -18 97 -20 4 -3 8 -205 8
-450 l0 -444 -120 0 -119 0 -3 65 -3 65 -35 -46 c-20 -28 -58 -60 -90 -78 -49
-28 -64 -31 -135 -31 -96 0 -142 21 -203 91 -71 79 -102 190 -102 358 0 168
40 288 123 374 125 130 297 164 582 116z m881 18 c8 -5 7 -41 -2 -127 -7 -66
-13 -125 -13 -132 -1 -8 -21 -11 -64 -10 -75 2 -108 -15 -168 -87 l-39 -48 0
-264 0 -264 -125 0 -125 0 0 455 0 455 125 0 124 0 3 -77 3 -78 32 50 c43 67
82 104 129 120 43 15 103 19 120 7z m604 -3 c86 -14 139 -38 194 -89 56 -51
80 -90 107 -166 21 -64 43 -242 33 -280 l-6 -24 -294 0 c-197 0 -294 -3 -294
-10 0 -19 38 -85 62 -107 69 -65 220 -77 362 -29 43 15 80 25 81 24 2 -2 12
-47 23 -102 l20 -98 -42 -19 c-171 -75 -411 -76 -548 -2 -57 31 -137 113 -167
171 -48 95 -66 269 -40 394 37 176 176 312 345 337 83 12 91 12 164 0z m-3490
-364 l0 -344 78 -3 77 -3 3 -107 3 -108 -291 0 -290 0 0 110 0 110 85 0 85 0
0 235 0 235 -85 0 -85 0 0 110 0 110 210 0 210 0 0 -345z m-4722 -644 c296
-63 480 -178 566 -352 47 -95 62 -173 77 -390 25 -376 -37 -573 -223 -714
-164 -125 -490 -231 -784 -256 -207 -17 -418 10 -619 81 -278 98 -413 265
-430 533 -3 51 -13 157 -22 236 -22 209 -16 298 29 392 60 127 200 255 374
342 119 60 319 118 489 142 140 20 418 13 543 -14z"/>
<path d="M2089 3374 c-41 -23 -48 -31 -53 -68 -4 -22 -39 -189 -77 -371 -39
-181 -84 -400 -99 -485 -33 -176 -63 -426 -55 -440 8 -12 75 -13 75 -2 0 5 18
94 40 198 43 205 230 1165 230 1183 0 16 -10 14 -61 -15z"/>
<path d="M2267 3358 c-24 -18 -254 -1195 -237 -1212 8 -8 21 1 50 34 22 25 46
59 54 76 13 27 137 623 192 927 18 97 18 98 -4 142 -23 48 -29 52 -55 33z"/>
<path d="M1850 3275 c-17 -25 -37 -60 -45 -79 -16 -37 -137 -632 -155 -761
-10 -71 -10 -87 7 -140 14 -46 23 -60 38 -60 17 0 29 50 122 525 57 289 102
532 100 540 -5 32 -36 21 -67 -25z"/>
<path d="M2453 3258 c-6 -7 -50 -217 -98 -467 l-88 -454 24 -18 c13 -10 29
-19 35 -19 35 0 104 280 184 749 l21 123 -24 46 c-26 50 -39 59 -54 40z"/>
<path d="M1638 3122 c-46 -48 -70 -92 -101 -177 -53 -149 -61 -333 -18 -430
12 -27 23 -46 25 -44 6 6 136 682 133 686 -2 1 -19 -14 -39 -35z"/>
<path d="M2621 3049 c-2 -11 -101 -505 -106 -529 -9 -46 74 58 114 140 34 71
36 80 35 175 -1 73 -7 116 -22 160 -11 33 -20 57 -21 54z"/>
<path d="M1337 2940 c-56 -39 -85 -66 -80 -73 23 -40 123 -179 123 -173 0 5
11 71 25 148 14 77 24 145 23 150 -2 5 -43 -19 -91 -52z"/>
<path d="M765 2559 c-174 -118 -336 -235 -368 -267 -108 -105 -157 -226 -157
-382 1 -106 12 -155 56 -249 50 -103 135 -185 249 -242 l88 -44 116 0 c134 0
151 6 344 121 174 104 579 373 575 383 -7 18 -583 891 -588 890 -3 0 -144 -95
-315 -210z"/>
<path d="M7049 2540 c-122 -37 -180 -219 -127 -401 41 -143 181 -133 279 20
29 45 29 45 29 212 l0 167 -31 6 c-41 8 -117 6 -150 -4z"/>
<path d="M6035 2561 c-46 -12 -79 -37 -103 -80 -41 -72 -44 -71 153 -71 l175
0 -6 28 c-10 42 -40 85 -71 104 -34 20 -107 29 -148 19z"/>
<path d="M9750 2528 c-80 -41 -113 -116 -113 -258 0 -147 40 -230 109 -230 66
0 114 41 177 151 26 44 27 52 27 196 l0 151 -31 6 c-62 12 -124 6 -169 -16z"/>
<path d="M11445 2561 c-46 -12 -79 -37 -103 -80 -41 -72 -44 -71 153 -71 l175
0 -6 28 c-10 42 -40 85 -71 104 -34 20 -107 29 -148 19z"/>
<path d="M2815 1585 c-282 -52 -604 -228 -678 -370 -31 -60 -29 -138 6 -197
67 -116 274 -220 492 -249 113 -15 377 -6 499 16 188 34 354 103 483 201 111
85 163 166 163 254 0 119 -89 202 -296 276 -161 58 -261 76 -434 80 -108 2
-179 -1 -235 -11z m563 -184 c27 -17 -582 -341 -785 -418 -46 -17 -83 -27 -83
-23 0 16 105 102 199 164 177 117 407 228 553 266 83 22 98 23 116 11z"/>
<path d="M3775 854 c-179 -145 -452 -271 -669 -309 -115 -20 -326 -19 -447 1
-111 19 -290 76 -411 132 l-88 41 0 -58 c0 -99 24 -158 89 -222 70 -68 169
-119 308 -156 92 -25 111 -27 323 -27 196 0 238 3 328 22 290 63 502 185 583
334 31 58 34 70 33 148 0 47 -4 92 -10 102 -8 15 -12 14 -39 -8z"/>
</g>
</svg>
